<svg xmlns="http://www.w3.org/2000/svg" viewBox="0 0 904 650" fill="none">
    <defs>
        <svg id="futbin-logo" width="81" height="27" viewBox="0 0 300 82" fill="none" xmlns="http://www.w3.org/2000/svg">
            <g fill="#ffffff7f">
                <path d="M55.0348 63.8775C54.817 63.7462 54.9589 63.4538 54.635 63.3663C54.3112 63.2788 53.2477 64.5298 52.4841 64.4741C52.2463 64.4623 52.0174 64.3803 51.8266 64.2386C51.6358 64.097 51.4917 63.902 51.4126 63.6786C51.3147 63.4797 50.725 63.6786 50.5391 63.6129C50.3532 63.5473 50.2892 63.2331 49.9614 63.1555C48.7177 62.6084 47.5227 61.9578 46.3891 61.2105C45.8028 60.8172 45.3135 60.297 44.9578 59.689C44.7839 59.4504 43.6145 58.9174 43.1127 58.45C42.7742 58.0652 42.3419 57.7735 41.8573 57.6028C40.884 57.1938 39.9384 56.7221 39.0267 56.1907C38.437 55.8327 38.503 55.4091 38.0772 54.9517C37.6514 54.4943 37.4435 54.7886 37.0497 54.5818C36.6559 54.3749 36.45 53.8976 36.3301 53.7345C36.2101 53.5715 35.0627 52.9191 34.1312 52.3106C33.2105 51.7035 32.3633 50.9928 31.6064 50.1925C30.9187 49.4526 30.5369 49.1603 30.1431 49.0628C29.8348 48.9682 29.5324 48.8553 29.2376 48.7247C29.0377 48.6591 28.1221 49.3214 26.8128 49.8663C26.0858 50.149 25.3413 50.3849 24.5839 50.5723C24.288 50.7036 21.9852 52.1256 21.1855 52.7362C20.3859 53.3467 19.3065 54.192 19.0326 54.3551C18.7587 54.5181 18.6328 54.4088 18.4329 54.5539C18.233 54.6991 16.6638 56.0754 15.9961 56.5427C15.2706 57.1311 14.5916 57.7741 13.9651 58.4659C13.4634 58.989 12.5998 59.88 12.0421 60.4328C11.1438 61.4541 10.1242 62.3631 9.00556 63.1396C8.1478 63.5741 7.24754 63.92 6.31888 64.1718C5.67943 64.4124 5.12008 64.8256 4.70368 65.3651C4.64371 65.564 4.88159 65.9955 5.05351 66.5345H56.0743C55.9884 66.4311 55.9084 66.3356 55.8544 66.2561C55.592 65.5583 55.5021 64.8079 55.5926 64.0684C55.6026 63.7422 55.2527 64.0147 55.0348 63.8834"/>
                <path d="M1.03949 63.078C1.51417 62.7553 1.94371 62.3715 2.31686 61.9364C3.02251 61.1707 4.31587 58.7543 5.2674 57.7321C6.33253 56.4336 7.53485 55.2527 8.85363 54.2099C9.83098 53.6772 10.753 53.0496 11.6063 52.3364L13.7032 50.5465C13.7032 50.5465 12.6398 49.4547 12.6398 49.2279C12.8296 48.4633 13.2329 47.7676 13.8032 47.2212C14.385 46.7148 15.0821 46.3571 15.8342 46.1791C16.128 46.0637 16.292 44.8267 16.8657 44.4508C17.4394 44.0749 17.9312 44.1406 18.291 43.9138C18.6508 43.6871 19.1605 42.3646 19.7982 41.7262C20.3937 41.0834 21.0648 40.5145 21.7972 40.0317C22.241 39.8328 21.8952 39.3476 22.371 39.0532C22.9108 38.7418 23.4207 38.3817 23.8942 37.9773C24.1094 37.4547 24.4401 36.987 24.8617 36.609C25.5994 35.9726 25.8113 35.5808 26.319 35.3202C26.8268 35.0597 26.7628 34.2781 27.2865 33.6755C27.8103 33.0729 27.7063 32.6473 27.9262 32.4683C28.3256 32.1575 28.6914 31.8063 29.0177 31.4202C29.4791 30.8363 29.8374 30.1785 30.0772 29.4751C30.2942 29.0334 30.5497 28.6115 30.8408 28.2142C30.9627 27.9756 30.5029 27.6176 30.5029 27.6176L30.329 27.3352C30.2054 27.0857 30.1275 26.8163 30.0991 26.5397C29.9315 26.3918 29.8101 26.1992 29.7493 25.9848C29.6734 25.6586 29.0617 25.3126 28.8318 24.4096C28.6868 23.8211 28.5846 23.2229 28.5259 22.6197C28.1887 22.1395 27.9953 21.574 27.9682 20.9889C27.7136 19.9873 27.6653 18.9448 27.8263 17.9242C28.2891 16.7263 29.0048 15.6412 29.9252 14.7421H13.3934L0 64.1121C0.244794 63.6792 0.604359 63.3215 1.03949 63.078"/>
                <path d="M128.113 56.1311C128.827 56.4739 129.583 56.7213 130.362 56.8669C131.436 56.88 132.501 56.682 133.498 56.2842V56.2842L133 54.2397L129.402 52.6885L126.282 53.7246C126.282 54.0707 126.37 55.0193 126.362 55.0372C126.902 55.4687 127.49 55.8377 128.115 56.137"/>
                <path d="M126.284 45.3458C125.555 45.5607 124.874 45.9095 124.275 46.374C124.106 46.8247 123.984 47.2911 123.909 47.7662C123.809 48.411 123.79 49.0656 123.851 49.7152C123.895 50.1916 123.98 50.6634 124.105 51.1253C124.626 51.9105 125.274 52.6041 126.024 53.1777L129.114 52.1515L129.446 48.5895L126.284 45.3458Z"/>
                <path d="M123.793 45.9424C123.738 45.3831 123.734 44.82 123.781 44.2599C123.067 45.827 122.817 47.5641 123.059 49.2677C123.105 49.3731 123.167 49.5044 123.245 49.6655C123.192 49.006 123.216 48.3427 123.315 47.6886C123.408 47.0925 123.569 46.5088 123.793 45.9484"/>
                <path d="M140.049 44.4011C140.308 44.7467 140.54 45.1125 140.741 45.4949V45.4751C140.209 43.6649 139.121 42.0655 137.63 40.9008C137.582 40.867 137.54 40.8312 137.494 40.7974L137.454 40.7715C138.017 41.365 138.408 42.0989 138.586 42.8956C139.133 43.3369 139.625 43.8432 140.049 44.4031"/>
                <path d="M139.575 44.771C139.199 44.2739 138.766 43.8214 138.286 43.4226L135.985 43.2774L134.356 47.7005L136.155 50.8369L139.501 50.5306L139.537 50.465C140.177 49.3315 140.552 48.0692 140.635 46.7718C140.388 46.0538 140.03 45.3787 139.573 44.771"/>
                <path d="M134.975 55.9958C135.879 55.9104 136.752 55.6287 137.534 55.1705C138.298 54.611 138.959 53.924 139.487 53.1399C139.539 53.0663 139.589 52.9907 139.641 52.9152C139.601 52.4398 139.533 51.6622 139.481 51.1252L136.119 51.4315L133.582 54.0607L134.078 56.1072C134.078 56.135 134.909 55.9998 134.975 55.9899"/>
                <path d="M135.433 43.0447L133.174 40.7954C132.657 40.7328 132.134 40.7248 131.615 40.7715C130.962 40.8337 130.319 40.9753 129.7 41.1932C129.076 41.4018 128.483 41.6928 127.937 42.0583C127.311 42.8968 126.882 43.8647 126.683 44.8903L129.908 48.2017L133.808 47.4579L135.433 43.0447Z"/>
                <path d="M129.48 40.6383C130.147 40.4027 130.841 40.2491 131.545 40.1809C132.07 40.1281 132.598 40.1281 133.122 40.1809C133.509 39.8182 133.95 39.5183 134.43 39.2919C132.473 38.7617 130.394 38.8968 128.523 39.6757C127.999 39.8877 127.499 40.1543 127.031 40.4712C126.943 40.5329 126.859 40.6025 126.773 40.6701C126.739 40.696 126.636 40.7974 126.586 40.7815C126.905 40.8849 127.553 41.0957 128.055 41.2747C128.509 41.0164 128.986 40.8001 129.48 40.6283"/>
                <path d="M138.758 54.6932C137.201 56.2426 135.153 57.2072 132.962 57.4224C130.771 57.6376 128.572 57.0902 126.741 55.8734C124.911 54.6567 123.56 52.8458 122.921 50.7496C122.282 48.6534 122.393 46.4015 123.236 44.3778C124.079 42.3541 125.601 40.6838 127.543 39.6516C129.485 38.6195 131.727 38.2892 133.886 38.7173C136.046 39.1454 137.989 40.3052 139.385 41.9991C140.781 43.6931 141.543 45.8163 141.542 48.0068C141.542 48.0983 141.53 48.1918 141.528 48.2832L150.472 14.7719H41.8194C42.4169 15.3924 42.7927 16.1911 42.8888 17.0451C42.96 17.9208 42.9048 18.8022 42.7249 19.6624C42.6769 20.2013 42.6843 20.7438 42.7469 21.2812C42.8006 21.8209 42.7899 22.365 42.7149 22.9021C42.649 23.3576 42.2232 23.5863 42.2771 23.9442C42.3311 24.3022 42.3111 25.3364 42.3431 25.412C42.4032 25.49 42.4799 25.5538 42.5677 25.5988C42.6554 25.6439 42.7522 25.669 42.8509 25.6725C43.0308 25.6387 43.5885 24.4991 43.9483 24.352C45.3141 24.0546 46.7168 23.9614 48.1103 24.0755C49.2786 24.3859 50.3566 24.9665 51.2567 25.77C51.5712 26.0791 51.9108 26.3618 52.2722 26.6152C52.746 26.8757 52.4521 27.1383 52.4521 27.3352C52.4521 27.5321 53.3357 27.8562 53.6315 27.9537C53.9274 28.0511 54.2053 27.6454 54.5811 27.6931C54.9569 27.7409 54.8609 28.0034 54.8609 28.0034L54.9429 28.1665C55.0249 28.3296 55.4506 28.3137 55.7605 28.4111C56.0703 28.5086 56.3022 28.7691 56.4322 28.8089C56.9044 28.7929 57.3736 28.7262 57.8315 28.61C59.6891 28.3107 61.5732 28.2068 63.4527 28.2997C66.3335 28.3509 69.2147 28.2181 72.0784 27.902C73.3798 27.7309 74.3473 27.4684 75.7806 27.192C76.8318 26.9282 77.9007 26.7401 78.979 26.6291C79.2489 26.7027 79.5687 27.1184 79.8486 27.3391C80.1285 27.5599 81.6177 28.2679 81.6917 28.7572C81.7657 29.2464 80.5602 30.4934 80.3144 30.6644C80.0685 30.8355 79.7147 30.6803 79.6927 30.73C79.9696 31.0172 80.2835 31.2666 80.6262 31.4719C80.7038 31.5193 80.7704 31.5825 80.8218 31.6573C80.8732 31.7321 80.9081 31.8169 80.9243 31.906C80.9405 31.9951 80.9377 32.0867 80.9159 32.1747C80.8942 32.2626 80.8541 32.3451 80.7981 32.4166C80.5982 32.7268 79.7327 32.5717 79.095 32.2773C78.4573 31.983 77.6777 31.5852 77.3498 31.4957C77.022 31.4062 76.1045 31.6171 75.6787 31.4381C75.1362 31.3346 74.5831 31.2965 74.0315 31.3247C73.5897 31.275 72.8101 30.7937 72.0325 30.9269C69.8404 31.6096 67.6858 32.4062 65.5776 33.3135C63.6829 34.2326 61.6319 34.7905 59.5306 34.9582C58.0271 34.9967 56.5226 34.9369 55.0269 34.7793C54.9252 34.7409 54.8142 34.7344 54.7088 34.7607C54.6033 34.787 54.5085 34.8449 54.4371 34.9264C54.2364 35.1312 54.0169 35.317 53.7815 35.4813L53.5816 35.5947C53.3817 35.708 53.8274 36.5572 54.2053 36.8655C54.4332 37.0576 54.5982 37.3132 54.679 37.5994L54.811 37.8599C54.9429 38.1204 55.8424 37.8281 56.2363 38.0727C56.6301 38.3173 58.1853 40.3698 58.5631 40.5329C58.9409 40.6959 61.4137 40.2067 61.9614 40.2564C62.5092 40.3061 62.4372 40.5985 62.9789 40.8113C63.5207 41.0241 63.5786 40.7457 64.1244 40.9088C64.6701 41.0718 65.2058 41.6744 65.5237 41.6585C65.8415 41.6426 66.5232 40.5667 66.965 40.5667C67.4067 40.5667 68.0304 41.1633 68.3643 41.1633C68.6981 41.1633 69.5277 40.0715 69.9635 39.9084C70.3993 39.7453 70.7331 39.9581 71.1429 39.9899C71.5527 40.0217 73.5997 39.8268 75.2229 39.7294C76.933 39.5382 78.6601 39.5542 80.3663 39.7771C81.3746 40.1064 82.4408 40.2229 83.4968 40.1192C83.8344 40.1275 84.1697 40.0634 84.4802 39.9313C84.7906 39.7991 85.0688 39.6021 85.2959 39.3535C85.7327 38.9797 86.2574 38.7218 86.8212 38.6037C87.2596 38.4187 87.6721 38.178 88.0486 37.8878C88.5225 37.6834 89.0171 37.5301 89.5238 37.4303C90.3776 37.1869 91.2573 37.0447 92.1445 37.0067C92.6601 37.0171 93.1721 37.094 93.6678 37.2354C93.8497 37.2354 94.4674 37.0226 95.7827 36.6806C96.4977 36.4778 97.2495 36.439 97.9817 36.5672C99.408 36.3081 100.862 36.2366 102.308 36.3544C103.697 36.4263 105.068 36.7121 106.37 37.2016C106.723 37.4015 106.987 37.7279 107.107 38.1145L107.861 38.0827L108.025 37.838L108.466 37.7565C108.91 37.675 109.892 37.8062 110.156 37.7406C110.42 37.675 110.581 37.4462 111.055 37.2195C111.529 36.9928 111.433 36.778 111.481 36.6646C111.811 36.343 112.208 36.0978 112.644 35.9467C113.416 35.5887 115.299 34.7077 115.595 34.6102C115.838 34.5715 116.087 34.5997 116.315 34.6917C116.463 34.7077 117.528 34.294 118.657 33.8962C120.237 33.2968 121.914 32.9927 123.605 32.9993C124.428 33.0099 125.24 33.1924 125.988 33.535C126.736 33.8776 127.403 34.3727 127.947 34.9881C128.423 35.7836 127.783 37.5735 126.801 38.4764C125.308 39.5679 123.58 40.2985 121.754 40.6104C120.264 40.8782 118.759 41.0582 117.248 41.1494C116.431 41.2734 115.647 41.5559 114.939 41.9807L114.693 42.1279C114.448 42.2731 114.595 42.7245 114.414 42.8598C114.232 42.995 113.742 42.8777 113.614 42.8777C113.325 42.9649 113.04 43.0678 112.762 43.1859C112.5 43.2675 112.63 43.4465 112.435 43.6434C112.239 43.8402 111.713 43.8064 111.533 43.8064C110.812 44.1313 110.032 44.3085 109.24 44.3275C108.847 44.3508 108.455 44.2562 108.116 44.0559C107.777 43.8556 107.507 43.5588 107.339 43.2038C107.273 43.0049 106.979 42.991 106.028 43.0885C105.103 43.1431 104.186 43.2903 103.291 43.528C102.353 43.877 101.373 44.1017 100.376 44.1962C99.4041 44.3732 98.4455 44.6184 97.5079 44.9301C96.4764 45.1588 94.9092 46.3223 93.9696 46.5212C93.0903 46.6425 92.2009 46.6752 91.3149 46.6186C90.4714 46.8527 89.6495 47.1581 88.8582 47.5315C87.4814 48.1267 86.1411 48.802 84.8441 49.5541C83.8527 50.2931 82.9799 51.1776 82.2554 52.1773C81.0102 53.5823 79.5364 54.7689 77.8956 55.6876C76.4963 56.5348 75.077 56.8808 74.7171 57.2786C74.5888 57.4298 74.497 57.6083 74.4488 57.8004C74.4007 57.9924 74.3974 58.1929 74.4393 58.3864C74.4553 58.7284 74.1774 59.2515 74.1934 59.5796C74.2094 59.9078 75.7166 60.9718 76.0445 61.2423C76.3723 61.5128 76.6342 62.1233 76.8441 62.2546C77.054 62.3859 78.1694 63.7541 78.7771 64.2573C79.4175 64.874 79.8516 65.6718 80.0205 66.5425H136.655L140.403 52.5015C139.964 53.3065 139.41 54.0435 138.758 54.6892"/>
                <path d="M173.404 15.0086L172.175 19.4913H163.705L158.67 37.7466H167.006L165.832 42.0921H157.496L150.7 66.7016H142.558L156.803 15.0086H173.404Z"/>
                <path d="M201.675 11.5361L198.866 1.25797C198.849 1.19807 198.816 1.14372 198.771 1.10034C198.726 1.05696 198.67 1.02608 198.61 1.01078C198.549 0.99548 198.485 0.996297 198.425 1.01315C198.365 1.03 198.31 1.0623 198.266 1.10682L195.867 3.63459L190.804 8.96459L188.485 11.4049C188.449 11.4427 188.422 11.4879 188.406 11.5373C188.389 11.5866 188.384 11.6389 188.389 11.6906C188.395 11.7423 188.413 11.7921 188.44 11.8365C188.467 11.8809 188.504 11.9189 188.547 11.9478C188.607 11.9863 188.676 12.007 188.747 12.0075H190.798L189.888 15.0106H189.876L176.799 62.3501H172.497L185.568 15.0066H177.436L164.643 61.4133C164.562 61.8553 164.515 62.3028 164.503 62.7518C164.48 63.3514 164.603 63.9476 164.861 64.49C165.163 65.115 165.63 65.6469 166.212 66.0294C167.09 66.5363 168.102 66.7691 169.115 66.6976H177.786C178.834 66.7228 179.875 66.5191 180.835 66.101C181.644 65.738 182.393 65.253 183.054 64.6631C183.621 64.1569 184.112 63.5713 184.511 62.9248C184.81 62.4562 185.046 61.9499 185.211 61.4193L197.824 15.6947L198.012 15.0125H197.992L198.742 11.9915H201.341C201.396 11.9916 201.45 11.979 201.499 11.9549C201.548 11.9307 201.591 11.8956 201.625 11.8523C201.658 11.8086 201.68 11.7579 201.691 11.7041C201.701 11.6503 201.699 11.5949 201.684 11.5421"/>
                <path d="M225.939 19.4217H217.403L204.393 66.6996H196.327L209.337 19.4217H200.801L202.036 15.0086H227.174L225.939 19.4217Z"/>
                <path d="M245.723 15.0066C246.714 14.9454 247.704 15.1515 248.587 15.6032C249.186 15.9443 249.668 16.4572 249.969 17.0749C250.229 17.6284 250.353 18.2361 250.329 18.8469C250.303 19.4436 250.263 19.9726 250.205 20.4181L245.661 37.0684C245.433 37.606 245.103 38.0944 244.687 38.5063C244.238 39.0167 243.755 39.497 243.242 39.9442C243.497 40.4085 243.721 40.8888 243.914 41.3821C244.139 41.8254 244.209 42.3306 244.114 42.818L239.026 61.2741C238.832 61.7223 238.578 62.2579 238.266 62.8811C237.925 63.5384 237.479 64.1362 236.945 64.6511C236.308 65.2557 235.569 65.7426 234.76 66.089C233.743 66.5134 232.646 66.7168 231.544 66.6856H216.893L231.138 14.9946L245.723 15.0066ZM231.904 42.1637L226.39 62.2248H230.624L236.138 42.1637H231.904ZM237.301 37.8181L242.342 19.4913H238.107L233.085 37.8102L237.301 37.8181Z"/>
                <path d="M248.571 62.2168L260.35 19.4197H254.57L255.806 15.0066H275.432L274.197 19.4197H268.416L256.637 62.2168H262.417L261.185 66.6976H241.561L242.792 62.2168H248.571Z"/>
                <path d="M291.964 15.0086L285.755 37.6093L285.109 15.0086H279.462L265.439 65.8941L265.217 66.6896H265.237L264.523 69.5476H261.925C261.87 69.5476 261.816 69.5601 261.767 69.5842C261.717 69.6084 261.674 69.6435 261.641 69.6868C261.608 69.7304 261.585 69.7811 261.574 69.8348C261.563 69.8885 261.565 69.944 261.579 69.997L264.378 80.2692C264.395 80.3291 264.428 80.3835 264.472 80.4268C264.517 80.4702 264.573 80.5011 264.634 80.5164C264.694 80.5317 264.758 80.5309 264.818 80.514C264.879 80.4972 264.933 80.4649 264.977 80.4204L267.376 77.8926L272.436 72.5626L274.754 70.1223C274.803 70.0714 274.835 70.0075 274.847 69.9385C274.859 69.8696 274.85 69.7987 274.822 69.7345C274.795 69.6705 274.749 69.616 274.69 69.5778C274.631 69.5397 274.563 69.5194 274.493 69.5197H272.442L273.253 66.6797L273.473 65.8842L280.002 42.2174L280.242 66.6916H285.755L300 15.0006L291.964 15.0086Z"/>
            </g>
        </svg>
    </defs>
    <g stroke="#696969" fill="#404040">
        <path d="M903 649.439H1L120.311 1H783.788L903 649.439Z" stroke-miterlimit="10"/>
        <path d="M550.992 275.425C553.194 321.703 508.921 360.763 452.019 360.763C395.117 360.763 350.853 321.703 353.062 275.425C355.172 231.123 399.452 196.564 452.035 196.564C504.618 196.564 548.89 231.115 550.992 275.425Z" stroke-miterlimit="10"/>
        <path d="M69.8843 275.038H834.169" stroke-miterlimit="10"/>
        <path d="M541.288 71.4008C543.078 109.009 503.086 140.632 451.897 140.632C400.708 140.632 360.732 109.017 362.53 71.4008C364.259 35.2446 404.251 6.93591 451.92 6.93591C499.582 6.93591 539.574 35.2446 541.288 71.4008Z" stroke-miterlimit="10"/>
        <path d="M269.125 96.4996H640.093L630.663 1.1532H278.312L269.125 96.4996Z" stroke-miterlimit="10"/>
        <path d="M371.922 54.7625H532.542L530.219 1.13715H374.245L371.922 54.7625Z" stroke-miterlimit="10"/>
        <path d="M343.464 530.333C346.061 474.554 395.78 431.261 454.624 431.261C513.469 431.261 563.279 474.554 565.998 530.333C568.855 588.91 519.151 638.6 454.853 638.6C390.554 638.6 340.737 588.91 343.471 530.333H343.464Z" stroke-miterlimit="10"/>
        <path d="M675.597 492.572H227.26L211.911 649.198H690.84L675.597 492.572Z" stroke-miterlimit="10"/>
        <path d="M556.362 556.642H352.353L348.43 649.238H560.453L556.362 556.642Z" stroke-miterlimit="10"/>
    </g>
    <use href="#futbin-logo" y="613" x="18"/>
    <use href="#futbin-logo" y="613" x="802"/>
</svg>